<svg width="37" height="55" viewBox="0 0 37 55" fill="none" xmlns="http://www.w3.org/2000/svg">
<path d="M20.75 4.99159L20.75 1.49159H13.75V4.99159H20.75ZM20.75 54.0013L20.75 4.99159H13.75L13.75 54.0013H20.75Z" fill="#7E7E7E"/>
<path d="M30 34H32V30H30V34ZM3 34L30 34V30L3 30L3 34Z" fill="#7E7E7E"/>
<path d="M13 1C13.8 2.6 14 1.66667 14 1" stroke="white"/>
<path d="M13 1C13.8 2.6 14 1.66667 14 1" stroke="white"/>
<path d="M13 1C13.8 2.6 14 1.66667 14 1" stroke="white"/>
<path d="M20 1C20.8 2.6 21 1.66667 21 1" stroke="white"/>
<path d="M20 1C20.8 2.6 21 1.66667 21 1" stroke="white"/>
<path d="M20 1C20.8 2.6 21 1.66667 21 1" stroke="white"/>
<path d="M32 9.50845V7.50845H28L28 9.50845H32ZM32 30V9.50845H28V30H32Z" fill="#7E7E7E"/>
<path d="M31.5 7.54762C32.3 8.67819 32.5 8.01869 32.5 7.54762" stroke="white"/>
<path d="M31.5 7.54762C32.3 8.67819 32.5 8.01869 32.5 7.54762" stroke="white"/>
<path d="M31.5 7.54762C32.3 8.67819 32.5 8.01869 32.5 7.54762" stroke="white"/>
<path d="M27 7C27.8 8.13057 28 7.47107 28 7" stroke="white"/>
<path d="M27 7C27.8 8.13057 28 7.47107 28 7" stroke="white"/>
<path d="M27 7C27.8 8.13057 28 7.47107 28 7" stroke="white"/>
<path d="M7 11.2903V9.29032H3V11.2903H7ZM7 30L7 11.2903H3L3 30H7Z" fill="#7E7E7E"/>
<path d="M6.5 9.5C7.3 10.5323 7.5 9.93011 7.5 9.5" stroke="white"/>
<path d="M6.5 9.5C7.3 10.5323 7.5 9.93011 7.5 9.5" stroke="white"/>
<path d="M6.5 9.5C7.3 10.5323 7.5 9.93011 7.5 9.5" stroke="white"/>
<path d="M2 9C2.8 10.0323 3 9.43011 3 9" stroke="white"/>
<path d="M2 9C2.8 10.0323 3 9.43011 3 9" stroke="white"/>
<path d="M2 9C2.8 10.0323 3 9.43011 3 9" stroke="white"/>
<path d="M33.0359 29L36.5 34.25H29.5718L33.0359 29Z" fill="white"/>
<path d="M3 30L6 35H3.5101e-06L3 30Z" fill="white"/>
</svg>
