<svg width="68" height="55" viewBox="0 0 68 55" fill="none" xmlns="http://www.w3.org/2000/svg">
<path d="M51.75 4.99159V1.49159H44.75V4.99159H51.75ZM51.75 54.0013L51.75 4.99159H44.75L44.75 54.0013H51.75Z" fill="#7E7E7E"/>
<path d="M61 34H63V30H61V34ZM34 34L61 34V30L34 30V34Z" fill="#7E7E7E"/>
<path d="M44 1C44.8 2.6 45 1.66667 45 1" stroke="white"/>
<path d="M44 1C44.8 2.6 45 1.66667 45 1" stroke="white"/>
<path d="M44 1C44.8 2.6 45 1.66667 45 1" stroke="white"/>
<path d="M51 1C51.8 2.6 52 1.66667 52 1" stroke="white"/>
<path d="M51 1C51.8 2.6 52 1.66667 52 1" stroke="white"/>
<path d="M51 1C51.8 2.6 52 1.66667 52 1" stroke="white"/>
<path d="M63 9.50845V7.50845H59V9.50845H63ZM63 30V9.50845H59V30H63Z" fill="#7E7E7E"/>
<path d="M62.5 7.54762C63.3 8.67819 63.5 8.01869 63.5 7.54762" stroke="white"/>
<path d="M62.5 7.54762C63.3 8.67819 63.5 8.01869 63.5 7.54762" stroke="white"/>
<path d="M62.5 7.54762C63.3 8.67819 63.5 8.01869 63.5 7.54762" stroke="white"/>
<path d="M58 7C58.8 8.13057 59 7.47107 59 7" stroke="white"/>
<path d="M58 7C58.8 8.13057 59 7.47107 59 7" stroke="white"/>
<path d="M58 7C58.8 8.13057 59 7.47107 59 7" stroke="white"/>
<path d="M38 11.2903V9.29032H34V11.2903H38ZM38 30V11.2903H34V30H38Z" fill="#7E7E7E"/>
<path d="M37.5 9.5C38.3 10.5323 38.5 9.93011 38.5 9.5" stroke="white"/>
<path d="M37.5 9.5C38.3 10.5323 38.5 9.93011 38.5 9.5" stroke="white"/>
<path d="M37.5 9.5C38.3 10.5323 38.5 9.93011 38.5 9.5" stroke="white"/>
<path d="M33 9C33.8 10.0323 34 9.43011 34 9" stroke="white"/>
<path d="M33 9C33.8 10.0323 34 9.43011 34 9" stroke="white"/>
<path d="M33 9C33.8 10.0323 34 9.43011 34 9" stroke="white"/>
<path d="M64.0359 29L67.5 34.25H60.5718L64.0359 29Z" fill="white"/>
<path d="M34 30L37 35H31L34 30Z" fill="white"/>
<path d="M18.75 4.99159L18.75 1.49159H11.75V4.99159H18.75ZM18.75 54.0013L18.75 4.99159H11.75L11.75 54.0013H18.75Z" fill="#7E7E7E"/>
<path d="M28 34H30V30H28V34ZM13 34L28 34V30L13 30V34Z" fill="#7E7E7E"/>
<path d="M13 27H15V23H13V27ZM3 27L13 27V23L3 23L3 27Z" fill="#7E7E7E"/>
<path d="M11 1C11.8 2.6 12 1.66667 12 1" stroke="white"/>
<path d="M11 1C11.8 2.6 12 1.66667 12 1" stroke="white"/>
<path d="M11 1C11.8 2.6 12 1.66667 12 1" stroke="white"/>
<path d="M18 1C18.8 2.6 19 1.66667 19 1" stroke="white"/>
<path d="M18 1C18.8 2.6 19 1.66667 19 1" stroke="white"/>
<path d="M18 1C18.8 2.6 19 1.66667 19 1" stroke="white"/>
<path d="M30 9.50845V7.50845H26L26 9.50845H30ZM30 30V9.50845H26V30H30Z" fill="#7E7E7E"/>
<path d="M29.5 7.54762C30.3 8.67819 30.5 8.01869 30.5 7.54762" stroke="white"/>
<path d="M29.5 7.54762C30.3 8.67819 30.5 8.01869 30.5 7.54762" stroke="white"/>
<path d="M29.5 7.54762C30.3 8.67819 30.5 8.01869 30.5 7.54762" stroke="white"/>
<path d="M25 7C25.8 8.13057 26 7.47107 26 7" stroke="white"/>
<path d="M25 7C25.8 8.13057 26 7.47107 26 7" stroke="white"/>
<path d="M25 7C25.8 8.13057 26 7.47107 26 7" stroke="white"/>
<path d="M7.77274 7.33609V4.83609H2.77274L2.77274 7.33609H7.77274ZM7.77274 23L7.77274 7.33609H2.77274L2.77274 23H7.77274Z" fill="#7E7E7E"/>
<path d="M7 5.41861C7.87273 6.28283 8.09091 5.7787 8.09091 5.41861" stroke="white"/>
<path d="M7 5.41861C7.87273 6.28283 8.09091 5.7787 8.09091 5.41861" stroke="white"/>
<path d="M7 5.41861C7.87273 6.28283 8.09091 5.7787 8.09091 5.41861" stroke="white"/>
<path d="M2 5C2.87273 5.86422 3.09091 5.36009 3.09091 5" stroke="white"/>
<path d="M2 5C2.87273 5.86422 3.09091 5.36009 3.09091 5" stroke="white"/>
<path d="M2 5C2.87273 5.86422 3.09091 5.36009 3.09091 5" stroke="white"/>
<path d="M31.0359 29L34.5 34.25H27.5718L31.0359 29Z" fill="white"/>
<path d="M3 23L6 28H3.5101e-06L3 23Z" fill="white"/>
</svg>
