<svg width="35" height="55" viewBox="0 0 35 55" fill="none" xmlns="http://www.w3.org/2000/svg">
<path d="M18.75 4.99159L18.75 1.49159H11.75V4.99159H18.75ZM18.75 54.0013L18.75 4.99159H11.75L11.75 54.0013H18.75Z" fill="#7E7E7E"/>
<path d="M28 34H30V30H28V34ZM13 34L28 34V30L13 30V34Z" fill="#7E7E7E"/>
<path d="M13 27H15V23H13V27ZM3 27L13 27V23L3 23L3 27Z" fill="#7E7E7E"/>
<path d="M11 1C11.8 2.6 12 1.66667 12 1" stroke="white"/>
<path d="M11 1C11.8 2.6 12 1.66667 12 1" stroke="white"/>
<path d="M11 1C11.8 2.6 12 1.66667 12 1" stroke="white"/>
<path d="M18 1C18.8 2.6 19 1.66667 19 1" stroke="white"/>
<path d="M18 1C18.8 2.6 19 1.66667 19 1" stroke="white"/>
<path d="M18 1C18.8 2.6 19 1.66667 19 1" stroke="white"/>
<path d="M30 9.50845V7.50845H26L26 9.50845H30ZM30 30V9.50845H26V30H30Z" fill="#7E7E7E"/>
<path d="M29.5 7.54762C30.3 8.67819 30.5 8.01869 30.5 7.54762" stroke="white"/>
<path d="M29.5 7.54762C30.3 8.67819 30.5 8.01869 30.5 7.54762" stroke="white"/>
<path d="M29.5 7.54762C30.3 8.67819 30.5 8.01869 30.5 7.54762" stroke="white"/>
<path d="M25 7C25.8 8.13057 26 7.47107 26 7" stroke="white"/>
<path d="M25 7C25.8 8.13057 26 7.47107 26 7" stroke="white"/>
<path d="M25 7C25.8 8.13057 26 7.47107 26 7" stroke="white"/>
<path d="M7.77274 7.33609V4.83609H2.77274L2.77274 7.33609H7.77274ZM7.77274 23L7.77274 7.33609H2.77274L2.77274 23H7.77274Z" fill="#7E7E7E"/>
<path d="M7 5.4186C7.87273 6.28282 8.09091 5.77869 8.09091 5.4186" stroke="white"/>
<path d="M7 5.4186C7.87273 6.28282 8.09091 5.77869 8.09091 5.4186" stroke="white"/>
<path d="M7 5.4186C7.87273 6.28282 8.09091 5.77869 8.09091 5.4186" stroke="white"/>
<path d="M2 5C2.87273 5.86422 3.09091 5.36009 3.09091 5" stroke="white"/>
<path d="M2 5C2.87273 5.86422 3.09091 5.36009 3.09091 5" stroke="white"/>
<path d="M2 5C2.87273 5.86422 3.09091 5.36009 3.09091 5" stroke="white"/>
<path d="M31.0359 29L34.5 34.25H27.5718L31.0359 29Z" fill="white"/>
<path d="M3 23L6 28H3.5101e-06L3 23Z" fill="white"/>
</svg>
