<svg width="50" height="58" viewBox="0 0 50 58" fill="none" xmlns="http://www.w3.org/2000/svg">
<line x1="28" y1="1.5" x2="48" y2="1.5" stroke="#7E7E7E" stroke-width="3"/>
<line x1="26" y1="4.5" x2="50" y2="4.5" stroke="#7E7E7E" stroke-width="3"/>
<line x1="26" y1="7.5" x2="50" y2="7.5" stroke="#7E7E7E" stroke-width="3"/>
<line x1="26" y1="10.5" x2="50" y2="10.5" stroke="#7E7E7E" stroke-width="3"/>
<line x1="26" y1="13.5" x2="36" y2="13.5" stroke="#7E7E7E" stroke-width="3"/>
<line x1="26" y1="16.5" x2="46" y2="16.5" stroke="#7E7E7E" stroke-width="3"/>
<line x1="23" y1="19.5" x2="36" y2="19.5" stroke="#7E7E7E" stroke-width="3"/>
<line x1="20" y1="22.5" x2="36" y2="22.5" stroke="#7E7E7E" stroke-width="3"/>
<line x1="17" y1="25.5" x2="43" y2="25.5" stroke="#7E7E7E" stroke-width="3"/>
<line x1="40" y1="28.5" x2="43" y2="28.5" stroke="#7E7E7E" stroke-width="3"/>
<line x1="14" y1="28.5" x2="36" y2="28.5" stroke="#7E7E7E" stroke-width="3"/>
<line y1="31.5" x2="36" y2="31.5" stroke="#7E7E7E" stroke-width="3"/>
<line y1="35" x2="36" y2="35" stroke="#7E7E7E" stroke-width="4"/>
<line x1="2" y1="38.5" x2="33" y2="38.5" stroke="#7E7E7E" stroke-width="3"/>
<line x1="4" y1="41.5" x2="31" y2="41.5" stroke="#7E7E7E" stroke-width="3"/>
<line x1="6" y1="44.5" x2="29" y2="44.5" stroke="#7E7E7E" stroke-width="3"/>
<line x1="23" y1="47.5" x2="29" y2="47.5" stroke="#7E7E7E" stroke-width="3"/>
<line x1="6" y1="47.5" x2="18" y2="47.5" stroke="#7E7E7E" stroke-width="3"/>
<line x1="6" y1="50.5" x2="15" y2="50.5" stroke="#7E7E7E" stroke-width="3"/>
<line x1="6" y1="53.5" x2="10" y2="53.5" stroke="#7E7E7E" stroke-width="3"/>
<line x1="25" y1="53.5" x2="29" y2="53.5" stroke="#7E7E7E" stroke-width="3"/>
<line x1="25" y1="50.5" x2="29" y2="50.5" stroke="#7E7E7E" stroke-width="3"/>
<line x1="6" y1="56.5" x2="15" y2="56.5" stroke="#7E7E7E" stroke-width="3"/>
<line x1="25" y1="56.5" x2="34" y2="56.5" stroke="#7E7E7E" stroke-width="3"/>
<line y1="28.5" x2="8" y2="28.5" stroke="#7E7E7E" stroke-width="3"/>
<line y1="25.5" x2="5" y2="25.5" stroke="#7E7E7E" stroke-width="3"/>
<line y1="21.5" x2="3" y2="21.5" stroke="#7E7E7E" stroke-width="5"/>
<line x1="30" y1="4.5" x2="33" y2="4.5" stroke="white" stroke-width="3"/>
</svg>
