<svg width="54" height="59" viewBox="0 0 54 59" fill="none" xmlns="http://www.w3.org/2000/svg">
<line x1="30.68" y1="2.34484" x2="51.88" y2="2.34484" stroke="#7E7E7E" stroke-width="3"/>
<line x1="45.08" y1="12.3793" x2="45.08" y2="1" stroke="#7E7E7E" stroke-width="3"/>
<line x1="27.06" y1="43.6724" x2="27.06" y2="24.7069" stroke="#7E7E7E" stroke-width="3"/>
<line x1="8.50131" y1="48.9373" x2="9.04129" y2="36.0236" stroke="#7E7E7E" stroke-width="3"/>
<line x1="29.18" y1="53.1552" x2="29.18" y2="34.1897" stroke="#7E7E7E" stroke-width="3"/>
<line x1="2.67999" y1="37.0345" x2="2.67999" y2="18.069" stroke="#7E7E7E" stroke-width="3"/>
<line x1="13.28" y1="49.3621" x2="13.28" y2="30.3966" stroke="#7E7E7E" stroke-width="3"/>
<line x1="21.76" y1="42.7242" x2="21.76" y2="23.7586" stroke="#7E7E7E" stroke-width="3"/>
<line x1="27.06" y1="37.9828" x2="27.06" y2="19.0172" stroke="#7E7E7E" stroke-width="3"/>
<line x1="34.48" y1="25.6552" x2="34.48" y2="6.68966" stroke="#7E7E7E" stroke-width="3"/>
<line x1="30.24" y1="23.7586" x2="30.24" y2="4.79311" stroke="#7E7E7E" stroke-width="3"/>
<line x1="28.56" y1="5.18967" x2="54" y2="5.18967" stroke="#7E7E7E" stroke-width="3"/>
<line x1="28.56" y1="8.0345" x2="54" y2="8.0345" stroke="#7E7E7E" stroke-width="3"/>
<line x1="28.56" y1="10.8793" x2="54" y2="10.8793" stroke="#7E7E7E" stroke-width="3"/>
<line x1="28.56" y1="13.7242" x2="39.16" y2="13.7242" stroke="#7E7E7E" stroke-width="3"/>
<line x1="28.56" y1="16.569" x2="49.76" y2="16.569" stroke="#7E7E7E" stroke-width="3"/>
<line x1="25.38" y1="19.4138" x2="39.16" y2="19.4138" stroke="#7E7E7E" stroke-width="3"/>
<line x1="22.2" y1="22.2586" x2="39.16" y2="22.2586" stroke="#7E7E7E" stroke-width="3"/>
<line x1="19.02" y1="25.1035" x2="46.58" y2="25.1035" stroke="#7E7E7E" stroke-width="3"/>
<line x1="43.4" y1="27.9483" x2="46.58" y2="27.9483" stroke="#7E7E7E" stroke-width="3"/>
<line x1="15.84" y1="27.9483" x2="39.16" y2="27.9483" stroke="#7E7E7E" stroke-width="3"/>
<line x1="1" y1="30.7931" x2="39.16" y2="30.7931" stroke="#7E7E7E" stroke-width="3"/>
<path d="M9 50.5L8.48303 31.0667" stroke="#7E7E7E" stroke-width="3"/>
<line x1="4.88983" y1="36.9333" x2="4.88983" y2="25.2" stroke="#7E7E7E" stroke-width="3"/>
<line x1="2.19492" y1="36.9333" x2="2.19492" y2="25.2" stroke="#7E7E7E" stroke-width="3"/>
<line x1="11.178" y1="50.1334" x2="11.178" y2="31.8" stroke="#7E7E7E" stroke-width="3"/>
<line x1="10.5002" y1="50.0253" x2="10.2799" y2="36.9586" stroke="#7E7E7E" stroke-width="3"/>
<line x1="15.6695" y1="49.4" x2="15.6695" y2="31.0667" stroke="#7E7E7E" stroke-width="3"/>
<line x1="17.4661" y1="47.2" x2="17.4661" y2="28.8667" stroke="#7E7E7E" stroke-width="3"/>
<line x1="24.6525" y1="43.5334" x2="24.6525" y2="25.2" stroke="#7E7E7E" stroke-width="3"/>
<line x1="24.6525" y1="44.2667" x2="24.6525" y2="25.9334" stroke="#7E7E7E" stroke-width="3"/>
<line x1="1" y1="34.0863" x2="39.16" y2="34.0863" stroke="#7E7E7E" stroke-width="4"/>
<line x1="3.12" y1="37.4311" x2="35.98" y2="37.4311" stroke="#7E7E7E" stroke-width="3"/>
<line x1="5.23999" y1="40.2759" x2="33.86" y2="40.2759" stroke="#7E7E7E" stroke-width="3"/>
<line x1="7.35999" y1="43.1207" x2="31.74" y2="43.1207" stroke="#7E7E7E" stroke-width="3"/>
<line x1="25.38" y1="45.9656" x2="31.74" y2="45.9656" stroke="#7E7E7E" stroke-width="3"/>
<line x1="7.35999" y1="45.9656" x2="20.08" y2="45.9656" stroke="#7E7E7E" stroke-width="3"/>
<line x1="7.35999" y1="48.8104" x2="16.9" y2="48.8104" stroke="#7E7E7E" stroke-width="3"/>
<line x1="27.5" y1="51.6552" x2="31.74" y2="51.6552" stroke="#7E7E7E" stroke-width="3"/>
<line x1="27.5" y1="48.8104" x2="31.74" y2="48.8104" stroke="#7E7E7E" stroke-width="3"/>
<line x1="1" y1="27.9483" x2="9.48" y2="27.9483" stroke="#7E7E7E" stroke-width="3"/>
<line x1="1" y1="25.1035" x2="6.3" y2="25.1035" stroke="#7E7E7E" stroke-width="3"/>
<line x1="1" y1="21.2586" x2="4.18" y2="21.2586" stroke="#7E7E7E" stroke-width="5"/>
<line x1="32.8" y1="5.18967" x2="35.98" y2="5.18967" stroke="white" stroke-width="3"/>
<line x1="30.68" y1="2.34484" x2="51.88" y2="2.34484" stroke="#7E7E7E" stroke-width="3"/>
<line x1="45.08" y1="12.3793" x2="45.08" y2="1" stroke="#7E7E7E" stroke-width="3"/>
<line x1="27.06" y1="43.6724" x2="27.06" y2="24.7069" stroke="#7E7E7E" stroke-width="3"/>
<line x1="29.18" y1="53.1552" x2="29.18" y2="34.1897" stroke="#7E7E7E" stroke-width="3"/>
<line x1="2.67999" y1="37.0345" x2="2.67999" y2="18.069" stroke="#7E7E7E" stroke-width="3"/>
<line x1="13.28" y1="49.3621" x2="13.28" y2="30.3966" stroke="#7E7E7E" stroke-width="3"/>
<line x1="21.76" y1="42.7242" x2="21.76" y2="23.7586" stroke="#7E7E7E" stroke-width="3"/>
<line x1="27.06" y1="37.9828" x2="27.06" y2="19.0172" stroke="#7E7E7E" stroke-width="3"/>
<line x1="34.48" y1="25.6552" x2="34.48" y2="6.68966" stroke="#7E7E7E" stroke-width="3"/>
<line x1="30.24" y1="23.7586" x2="30.24" y2="4.79311" stroke="#7E7E7E" stroke-width="3"/>
<line x1="28.56" y1="5.18967" x2="54" y2="5.18967" stroke="#7E7E7E" stroke-width="3"/>
<line x1="28.56" y1="8.0345" x2="54" y2="8.0345" stroke="#7E7E7E" stroke-width="3"/>
<line x1="28.56" y1="10.8793" x2="54" y2="10.8793" stroke="#7E7E7E" stroke-width="3"/>
<line x1="28.56" y1="13.7242" x2="39.16" y2="13.7242" stroke="#7E7E7E" stroke-width="3"/>
<line x1="28.56" y1="16.569" x2="49.76" y2="16.569" stroke="#7E7E7E" stroke-width="3"/>
<line x1="25.38" y1="19.4138" x2="39.16" y2="19.4138" stroke="#7E7E7E" stroke-width="3"/>
<line x1="22.2" y1="22.2586" x2="39.16" y2="22.2586" stroke="#7E7E7E" stroke-width="3"/>
<line x1="19.02" y1="25.1035" x2="46.58" y2="25.1035" stroke="#7E7E7E" stroke-width="3"/>
<line x1="43.4" y1="27.9483" x2="46.58" y2="27.9483" stroke="#7E7E7E" stroke-width="3"/>
<line x1="31.5" y1="24.7851" x2="31.5" y2="6.5" stroke="#7E7E7E" stroke-width="3"/>
<line x1="37.5" y1="34.4101" x2="37.5" y2="16.125" stroke="#7E7E7E" stroke-width="3"/>
<line x1="29.5" y1="35.0976" x2="29.5" y2="16.8125" stroke="#7E7E7E" stroke-width="3"/>
<line x1="33.5" y1="35.7851" x2="33.5" y2="17.5" stroke="#7E7E7E" stroke-width="3"/>
<line x1="30.5" y1="35.7851" x2="30.5" y2="17.5" stroke="#7E7E7E" stroke-width="3"/>
<line x1="34.5" y1="35.7851" x2="34.5" y2="17.5" stroke="#7E7E7E" stroke-width="3"/>
<line x1="34.5" y1="35.7851" x2="34.5" y2="17.5" stroke="#7E7E7E" stroke-width="3"/>
<line x1="14" y1="35.25" x2="37.32" y2="35.25" stroke="#7E7E7E" stroke-width="3"/>
<line x1="1" y1="30.7931" x2="39.16" y2="30.7931" stroke="#7E7E7E" stroke-width="3"/>
<line x1="4.88983" y1="36.9333" x2="4.88983" y2="25.2" stroke="#7E7E7E" stroke-width="3"/>
<line x1="2.19492" y1="36.9333" x2="2.19492" y2="25.2" stroke="#7E7E7E" stroke-width="3"/>
<line x1="11.178" y1="50.1334" x2="11.178" y2="31.8" stroke="#7E7E7E" stroke-width="3"/>
<path d="M10.2797 49L10.2797 35.9334" stroke="#7E7E7E" stroke-width="3"/>
<line x1="15.6695" y1="49.4" x2="15.6695" y2="31.0667" stroke="#7E7E7E" stroke-width="3"/>
<line x1="17.4661" y1="47.2" x2="17.4661" y2="28.8667" stroke="#7E7E7E" stroke-width="3"/>
<line x1="24.6525" y1="43.5334" x2="24.6525" y2="25.2" stroke="#7E7E7E" stroke-width="3"/>
<line x1="24.6525" y1="44.2667" x2="24.6525" y2="25.9334" stroke="#7E7E7E" stroke-width="3"/>
<line x1="1" y1="34.0863" x2="39.16" y2="34.0863" stroke="#7E7E7E" stroke-width="4"/>
<line x1="3.12" y1="37.4311" x2="35.98" y2="37.4311" stroke="#7E7E7E" stroke-width="3"/>
<line x1="5.23999" y1="40.2759" x2="33.86" y2="40.2759" stroke="#7E7E7E" stroke-width="3"/>
<line x1="7.35999" y1="43.1207" x2="31.74" y2="43.1207" stroke="#7E7E7E" stroke-width="3"/>
<line x1="25.38" y1="45.9656" x2="31.74" y2="45.9656" stroke="#7E7E7E" stroke-width="3"/>
<line x1="27.5" y1="51.6552" x2="31.74" y2="51.6552" stroke="#7E7E7E" stroke-width="3"/>
<path d="M27.5 54.5H31.7" stroke="#7E7E7E" stroke-width="3"/>
<line x1="27.5" y1="48.8104" x2="31.74" y2="48.8104" stroke="#7E7E7E" stroke-width="3"/>
<line x1="11" y1="51.5" x2="21" y2="51.5" stroke="#7E7E7E" stroke-width="3"/>
<path d="M27.46 57.5H37" stroke="#7E7E7E" stroke-width="3"/>
<line x1="1" y1="27.9483" x2="9.48" y2="27.9483" stroke="#7E7E7E" stroke-width="3"/>
<line x1="1" y1="25.1035" x2="6.3" y2="25.1035" stroke="#7E7E7E" stroke-width="3"/>
<line x1="1" y1="21.2586" x2="4.18" y2="21.2586" stroke="#7E7E7E" stroke-width="5"/>
<line x1="32.8" y1="5.18967" x2="35.98" y2="5.18967" stroke="white" stroke-width="3"/>
</svg>
